<svg xmlns="http://www.w3.org/2000/svg" viewBox="0 0 5000 5000"><path d="M846 3884 c-32 -10 -64 -31 -96 -63 -40 -40 -50 -58 -60 -105 -27 -132 47 -249 175 -276 64 -13 134 1 182 36 17 13 37 24 44 24 7 0 44 -19 83 -41 39 -23 85 -49 101 -59 17 -9 75 -43 130 -75 55 -32 116 -67 135 -77 19 -11 42 -25 50 -32 8 -7 26 -17 40 -24 14 -7 48 -24 75 -40 l50 -27 5 -405 5 -405 90 -51 c50 -29 106 -61 125 -71 19 -11 76 -43 125 -73 50 -29 108 -63 130 -75 22 -13 78 -45 125 -72 l85 -49 3 -180 2 -179 -50 -23 c-145 -67 -173 -266 -52 -373 124 -108 301 -67 364 85 45 109 -6 239 -112 288 l-50 23 2 179 3 180 85 49 c47 27 103 59 125 72 22 12 81 46 130 75 50 30 104 61 120 70 17 8 63 35 104 59 65 38 77 42 94 31 11 -7 39 -23 61 -35 23 -13 82 -46 131 -75 50 -29 108 -63 130 -75 22 -13 81 -46 130 -75 50 -29 104 -61 121 -70 76 -44 73 -39 73 -111 0 -80 21 -130 77 -179 49 -43 93 -60 152 -60 64 0 113 21 162 70 106 106 80 284 -53 361 -34 19 -56 24 -114 24 -65 -1 -77 -4 -119 -33 -53 -38 -59 -37 -153 21 -36 22 -84 50 -106 62 -22 12 -60 34 -85 48 -52 31 -168 98 -290 167 l-85 48 -3 380 -2 379 160 159 c89 88 163 161 165 163 2 2 22 -4 45 -13 117 -47 264 19 299 134 39 132 -24 257 -151 295 -65 19 -76 19 -135 -1 -126 -42 -191 -186 -140 -307 l17 -38 -154 -155 c-85 -85 -157 -154 -161 -154 -5 0 -193 104 -235 131 -15 9 -217 126 -280 161 -19 11 -65 38 -102 60 l-67 40 -68 -40 c-37 -22 -84 -49 -103 -60 -70 -39 -265 -152 -280 -162 -8 -5 -53 -30 -100 -56 -47 -26 -97 -56 -112 -66 l-27 -19 -77 43 c-102 58 -133 76 -239 138 -115 68 -161 94 -267 154 l-87 49 1 66 c2 100 -43 176 -129 219 -57 29 -109 34 -167 16z"></path></svg>